<?xml version="1.0" standalone="no"?>
<!DOCTYPE svg PUBLIC "-//W3C//DTD SVG 20010904//EN"
 "http://www.w3.org/TR/2001/REC-SVG-20010904/DTD/svg10.dtd">
<svg version="1.0" xmlns="http://www.w3.org/2000/svg"
 width="700.000000pt" height="700.000000pt" viewBox="0 0 700.000000 700.000000"
 preserveAspectRatio="xMidYMid meet">
<metadata>
Created by potrace 1.14, written by Peter Selinger 2001-2017
</metadata>
<g transform="translate(0.000000,700.000000) scale(0.100000,-0.100000)"
fill="#000000" stroke="none">
<path d="M2890 6955 c-36 -7 -81 -15 -100 -19 -403 -78 -843 -263 -1215 -509
-825 -547 -1400 -1449 -1535 -2412 -6 -44 -13 -93 -15 -110 -14 -99 -20 -228
-19 -435 0 -271 7 -355 45 -585 199 -1183 1015 -2208 2115 -2659 115 -47 295
-111 354 -126 19 -4 80 -20 135 -35 55 -14 111 -28 125 -30 14 -2 48 -8 75
-14 28 -5 65 -12 83 -15 l32 -5 0 669 c0 631 -1 670 -17 670 -35 0 -284 90
-389 139 -97 47 -272 146 -284 161 -3 4 -15 12 -27 19 -44 23 -220 169 -304
253 -270 269 -470 612 -573 983 -26 95 -27 100 -51 235 -38 221 -38 519 1 722
9 46 18 94 21 108 24 137 102 360 177 509 141 280 308 496 551 711 54 49 248
190 259 190 3 0 21 11 41 24 101 69 348 176 523 226 l72 21 0 664 c0 366 -3
664 -7 664 -5 -1 -37 -7 -73 -14z"/>
<path d="M4030 6303 c0 -522 3 -664 13 -668 6 -2 59 -18 117 -36 608 -185
1130 -663 1373 -1259 52 -127 91 -246 112 -345 3 -11 9 -40 14 -65 29 -131 47
-326 45 -466 -2 -93 -12 -237 -19 -274 -3 -14 -8 -45 -11 -70 -23 -176 -113
-448 -211 -644 -173 -343 -456 -655 -789 -869 -149 -96 -378 -199 -556 -251
l-83 -24 -3 -666 c-1 -366 1 -666 5 -666 10 0 123 19 148 24 11 3 52 12 90 21
39 9 80 18 93 21 12 2 75 20 139 40 318 96 615 235 898 419 95 62 267 187 301
219 6 6 36 31 65 56 155 129 364 351 501 529 15 20 31 41 36 46 132 171 315
492 417 735 41 98 118 312 130 360 2 8 15 58 29 110 29 105 73 323 81 397 3
26 7 59 10 73 27 132 27 735 0 865 -2 11 -7 40 -10 65 -4 39 -22 143 -40 235
-3 17 -13 57 -22 90 -8 33 -17 68 -18 78 -6 26 -53 183 -77 252 -313 909 -995
1663 -1858 2055 -154 70 -415 167 -496 185 -10 2 -53 12 -94 23 -68 18 -146
35 -211 47 -13 3 -45 9 -71 13 l-48 9 0 -664z"/>
</g>
</svg>
