<svg xmlns="http://www.w3.org/2000/svg" viewBox="0 0 118.92 75.31"><title>Asset 6</title><g id="Layer_2" data-name="Layer 2"><g id="Layer_4" data-name="Layer 4"><path d="M58.75,61v2.65H41V58.34H53.07A9,9,0,1,0,44.42,70,8.91,8.91,0,0,0,51,67.19l3.85,3.62A14.31,14.31,0,1,1,58.75,61M64.62,74.2h15.8V68.92H64.62ZM.59,53H17.71L.59,66.6v2.58h0v5h22.8v-5.3h-17l17.05-13.5V47.75H.59ZM90.36,61A14.29,14.29,0,0,0,102.48,75.1V69.71a9,9,0,0,1,0-17.45v-5.4A14.3,14.3,0,0,0,90.36,61M106.8,46.86v5.4a9,9,0,0,1,0,17.45V75.1a14.29,14.29,0,0,0,0-28.24M74.48,51.24V47.75H64.62V53H69.2V64.58h5.28V62.09A8.53,8.53,0,0,1,83,53.57a8.16,8.16,0,0,1,2.26.31l1.41-5.1a13.84,13.84,0,0,0-12.19,2.46M108.44,0h-5.29V9.63H95.48v5.29h20.63V9.63h-7.67Zm0,19.25h-5.29V36.09h13V30.8h-7.67ZM42.35,0H37.07V9.63H29.39v5.29H50V9.63H42.35Zm0,19.25H37.07V36.09H50V30.8H42.35ZM86.08,9.63H80.79v2.13a14.32,14.32,0,1,0-9,25.43,14.09,14.09,0,0,0,5.23-1l-1.93-4.91a9,9,0,1,1,5.74-8.42V36.09h8.73V30.8H86.08ZM20.63,22.39a13.73,13.73,0,0,0-7.25-2.29c-2.68-.2-4.52-.6-5.48-1.2a2.48,2.48,0,0,1-1.26-2.27A2.27,2.27,0,0,1,7,15.37a3.28,3.28,0,0,1,1-1,5.74,5.74,0,0,1,1.6-.62,8.83,8.83,0,0,1,2-.21,6.38,6.38,0,0,1,4.11,1.25,4.75,4.75,0,0,1,1.74,3.4v.06l5.15-1.44V16.8a10.87,10.87,0,0,0-.9-2.76,8.68,8.68,0,0,0-2.17-2.79,11.07,11.07,0,0,0-3.44-1.94,13.8,13.8,0,0,0-4.7-.74,13.49,13.49,0,0,0-3.67.49,10.45,10.45,0,0,0-3.2,1.5,7.76,7.76,0,0,0-2.3,2.54,7,7,0,0,0-.87,3.53v.31A6.69,6.69,0,0,0,4,22.64a13.72,13.72,0,0,0,7.22,2.21A13.77,13.77,0,0,1,16.49,26a2.61,2.61,0,0,1,1.35,2.52A2.86,2.86,0,0,1,16.42,31a7.79,7.79,0,0,1-4.23,1,7.27,7.27,0,0,1-4.95-1.62,6.16,6.16,0,0,1-2-4.3l0-.14L0,27.44v0A10.85,10.85,0,0,0,.86,30.8,9.49,9.49,0,0,0,3.18,34,11.25,11.25,0,0,0,7,36.31a15.4,15.4,0,0,0,5.41.85,15.67,15.67,0,0,0,4.32-.57,10.12,10.12,0,0,0,3.45-1.7,8.25,8.25,0,0,0,2.27-2.75,8,8,0,0,0,.83-3.66v-.32a6.84,6.84,0,0,0-2.64-5.77"/></g></g></svg>