<svg xmlns="http://www.w3.org/2000/svg" viewBox="0 0 277.48 39.06"><title>Asset 5</title><g id="Layer_2" data-name="Layer 2"><g id="Layer_3" data-name="Layer 3"><path d="M214.29,24v2.78H195.64V21.24h12.69a9.5,9.5,0,1,0-9.08,12.27,9.37,9.37,0,0,0,6.88-3l4,3.81A15,15,0,1,1,214.29,24m6.16,13.89h16.6V32.35h-16.6ZM153.21,15.66h18l-18,14.25,0,2.71h0v5.29h23.95V32.35l-17.91,0,17.91-14.17V15.4h0V10.11H153.21ZM247.49,24a15,15,0,0,0,12.72,14.83V33.17a9.44,9.44,0,0,1,0-18.32V9.18A15,15,0,0,0,247.49,24M264.76,9.18v5.67a9.44,9.44,0,0,1,0,18.32v5.67a15,15,0,0,0,0-29.66m-33.94,4.6V10.11H220.45v5.55h4.82V27.79h5.55V25.17a9,9,0,0,1,8.94-8.94,9,9,0,0,1,2.38.32l1.47-5.35a14.24,14.24,0,0,0-3.85-.52,14.4,14.4,0,0,0-8.94,3.1M113.88,0h-5.55V10.11h-8.06v5.55h21.67V10.11h-8.06Zm0,20.22h-5.55V37.9h13.61V32.35h-8.06ZM44.48,0H38.93V10.11H30.87v5.55H52.54V10.11H44.48Zm0,20.22H38.93V37.9H52.54V32.35H44.48ZM90.4,10.11H84.85v2.25a15,15,0,1,0-9.5,26.7h0a14.93,14.93,0,0,0,5.5-1l-2-5.16a9.45,9.45,0,0,1-3.46.65h0a9.5,9.5,0,1,1,9.5-9.5V37.9H94V32.35H90.4ZM21.67,23.52a14.37,14.37,0,0,0-7.61-2.41c-2.82-.21-4.76-.63-5.76-1.26A2.61,2.61,0,0,1,7,17.46a2.27,2.27,0,0,1,.37-1.31,3.28,3.28,0,0,1,1.08-1,5.83,5.83,0,0,1,1.67-.66,9.14,9.14,0,0,1,2.05-.22,6.72,6.72,0,0,1,4.32,1.31,5.07,5.07,0,0,1,1.83,3.57v.06l5.41-1.51v0a10.71,10.71,0,0,0-.95-2.9,8.89,8.89,0,0,0-2.28-2.93,11.5,11.5,0,0,0-3.6-2.05A14.63,14.63,0,0,0,11.93,9a14.37,14.37,0,0,0-3.85.52,10.94,10.94,0,0,0-3.36,1.58A8.09,8.09,0,0,0,2.3,13.75a7.39,7.39,0,0,0-.91,3.71v.33a7,7,0,0,0,2.8,6,14.36,14.36,0,0,0,7.58,2.33,14.41,14.41,0,0,1,5.54,1.16,2.75,2.75,0,0,1,1.43,2.64,3,3,0,0,1-1.5,2.7,8.19,8.19,0,0,1-4.44,1.06A7.57,7.57,0,0,1,7.61,32a6.41,6.41,0,0,1-2.16-4.51l0-.14L0,28.82v0a11.25,11.25,0,0,0,.9,3.48,10,10,0,0,0,2.44,3.41,12,12,0,0,0,4,2.39A16.32,16.32,0,0,0,13,39a16.45,16.45,0,0,0,4.54-.6,10.72,10.72,0,0,0,3.63-1.79,8.75,8.75,0,0,0,2.38-2.89,8.52,8.52,0,0,0,.87-3.85v-.32a7.19,7.19,0,0,0-2.77-6.06"/></g></g></svg>